<svg xmlns="http://www.w3.org/2000/svg" width="280" height="800" viewBox="0 0 280 800" fill="none">
  <g stroke="#c7f0ff" stroke-width="2" stroke-linecap="round" stroke-linejoin="round" opacity="0.9">
    <path d="M50 780 C80 640 40 520 90 380 C120 300 130 220 170 120 C190 70 210 40 240 10" />
    <path d="M75 620 C110 600 140 560 160 520" />
    <path d="M65 520 C95 500 120 460 130 420" />
    <path d="M95 460 C130 445 160 420 185 390" />
    <path d="M85 380 C120 370 150 350 175 320" />
    <path d="M115 300 C150 290 180 265 210 235" />
    <path d="M110 220 C145 210 170 190 195 165" />
    <path d="M135 170 C165 160 190 140 210 115" />
    <path d="M150 120 C180 110 205 90 230 60" />
    <path d="M40 700 C20 650 15 600 25 560" />
    <path d="M30 560 C10 520 8 480 18 440" />
    <path d="M45 450 C30 420 25 390 30 350" />
    <path d="M55 340 C40 305 38 270 48 235" />
    <path d="M70 255 C55 230 50 200 55 170" />
  </g>
</svg>
